<svg width="136" height="42" viewBox="0 0 136 42" fill="none" xmlns="http://www.w3.org/2000/svg">
<path opacity="0.9" d="M10.5852 28.5385C10.5588 26.9377 10.8668 25.3489 11.4897 23.8732C12.1126 22.3975 13.0368 21.0672 14.2033 19.967C16.5781 17.6895 19.7452 16.4174 23.0402 16.4174C26.3352 16.4174 29.5022 17.6895 31.877 19.967C34.186 22.2985 35.4808 25.4433 35.4808 28.7199C35.4808 31.9966 34.186 35.1413 31.877 37.4729C30.6977 38.6221 29.2997 39.5245 27.7653 40.1268C26.2309 40.7292 24.5912 41.0194 22.9426 40.9804C21.3085 41.0296 19.682 40.741 18.1652 40.1329C16.6485 39.5247 15.2744 38.6101 14.1295 37.4466C12.9587 36.2827 12.04 34.8915 11.4303 33.3592C10.8207 31.8269 10.533 30.1861 10.5852 28.5385V28.5385ZM16.0915 28.6332C16.0915 30.9575 16.7138 32.7962 17.9585 34.1494C19.3113 35.4603 21.122 36.1958 23.0085 36.2007C24.8949 36.2056 26.7094 35.4796 28.0691 34.1757C29.3313 32.819 29.9607 31.0118 29.9572 28.7541C29.9537 26.4964 29.3243 24.6892 28.0691 23.3325C26.7289 22.0148 24.9223 21.2761 23.0402 21.2761C21.158 21.2761 19.3514 22.0148 18.0113 23.3325C16.7 24.7806 16.0107 26.6838 16.0915 28.6332V28.6332Z" fill="black"/>
<path opacity="0.9" d="M57.8469 17.0747H63.2582V40.3336H57.8469V37.8988C55.6283 39.9637 53.2408 40.9979 50.6846 41.0014C49.1773 41.0385 47.6801 40.7456 46.2987 40.1432C44.9172 39.5408 43.685 38.6436 42.689 37.515C40.5794 35.1451 39.5245 32.1845 39.5245 28.6331C39.5245 25.1484 40.5794 22.2422 42.689 19.9144C43.6578 18.7918 44.8628 17.896 46.2184 17.2906C47.5739 16.6853 49.0466 16.3853 50.5317 16.4121C53.2496 16.4121 55.6845 17.5269 57.8364 19.7566L57.8469 17.0747ZM45.0571 28.6437C44.9708 30.6159 45.6104 32.5515 46.8556 34.0863C47.4217 34.7627 48.1334 35.3031 48.9379 35.6673C49.7424 36.0315 50.6189 36.2101 51.5021 36.1898C52.4099 36.2229 53.3138 36.0563 54.1496 35.7019C54.9855 35.3474 55.7328 34.8138 56.3385 34.1389C57.5356 32.5926 58.1849 30.6943 58.1849 28.7409C58.1849 26.7876 57.5356 24.8893 56.3385 23.343C55.7442 22.665 55.0063 22.127 54.1782 21.7678C53.35 21.4086 52.4523 21.2371 51.5496 21.2658C50.6673 21.2519 49.7929 21.4334 48.9894 21.7971C48.1859 22.1609 47.4733 22.6978 46.9031 23.3693C45.6494 24.8328 44.9876 26.7094 45.0466 28.6331L45.0571 28.6437Z" fill="black"/>
<path opacity="0.9" d="M86.1954 0H91.6014V40.3336H86.1954V37.8989C85.2632 38.871 84.1447 39.6465 82.9063 40.1795C81.6678 40.7124 80.3346 40.9919 78.9857 41.0015C77.485 41.0353 75.9951 40.7406 74.6209 40.1382C73.2468 39.5358 72.0218 38.6404 71.0323 37.515C68.9226 35.1451 67.8766 32.1845 67.8941 28.6332C67.8941 25.1625 68.9402 22.265 71.0323 19.9407C71.9935 18.8102 73.195 17.907 74.5496 17.2967C75.9043 16.6864 77.3781 16.3843 78.8644 16.4122C81.5964 16.4122 84.0401 17.527 86.1954 19.7566V0ZM73.4056 28.6332C73.3178 30.6047 73.9555 32.5403 75.1988 34.0759C75.7649 34.7522 76.4766 35.2926 77.2811 35.6568C78.0856 36.021 78.9621 36.1996 79.8454 36.1793C80.7531 36.2128 81.6571 36.0464 82.4931 35.6919C83.329 35.3374 84.0763 34.8036 84.6818 34.1285C85.8788 32.5821 86.5281 30.6838 86.5281 28.7305C86.5281 26.7771 85.8788 24.8788 84.6818 23.3325C84.0877 22.6542 83.3498 22.116 82.5216 21.7568C81.6934 21.3976 80.7955 21.2263 79.8928 21.2553C79.0105 21.2415 78.1361 21.4229 77.3326 21.7866C76.5291 22.1504 75.8165 22.6873 75.2463 23.3588C73.9959 24.8273 73.3396 26.7079 73.4056 28.6332Z" fill="black"/>
<path opacity="0.9" d="M5.39018 0.336548V40.6702H0V0.336548H5.39018Z" fill="black"/>
<path d="M96.2532 28.5385C96.228 26.9383 96.5361 25.3503 97.158 23.8749C97.7798 22.3995 98.702 21.0688 99.866 19.967C102.241 17.6895 105.408 16.4174 108.703 16.4174C111.998 16.4174 115.165 17.6895 117.54 19.967C119.851 22.2972 121.148 25.4424 121.148 28.7199C121.148 31.9974 119.851 35.1427 117.54 37.4729C116.36 38.6221 114.962 39.5245 113.428 40.1268C111.894 40.7292 110.254 41.0194 108.605 40.9804C106.972 41.0289 105.347 40.7399 103.831 40.1318C102.315 39.5237 100.942 38.6094 99.7974 37.4466C98.6266 36.2827 97.7079 34.8915 97.0983 33.3592C96.4886 31.8269 96.201 30.1861 96.2532 28.5385V28.5385ZM101.759 28.6332C101.759 30.9575 102.382 32.7962 103.626 34.1494C104.978 35.46 106.788 36.1953 108.674 36.2002C110.559 36.2051 112.373 35.4792 113.732 34.1757C114.998 32.819 115.629 31.0118 115.625 28.7541C115.622 26.4964 114.998 24.6892 113.753 23.3325C112.413 22.0148 110.606 21.2761 108.724 21.2761C106.842 21.2761 105.035 22.0148 103.695 23.3325C102.38 24.7791 101.685 26.6819 101.759 28.6332Z" fill="#4DBA7A"/>
<path d="M113.811 8.83972C111.737 8.8389 109.686 9.26971 107.789 10.1046C105.892 10.9395 104.19 12.16 102.793 13.6882H117.519V8.83972H113.811Z" fill="#4DBA7A"/>
<path d="M109.033 16.4279L104.592 21.2764H121.137V16.4279H109.033Z" fill="#4DBA7A"/>
<path d="M115.409 8.83972V13.6882H130.984L135.846 8.83972H115.409Z" fill="#4DBA7A"/>
<path d="M122.376 21.2763H123.368L124.37 20.2825L122.376 21.2763Z" fill="#4DBA7A"/>
<path d="M128.23 16.4279H120.651V21.2764H122.376L124.37 20.2825L128.23 16.4279Z" fill="#4DBA7A"/>
</svg>
